<?xml version="1.0" encoding="iso-8859-1"?>
<!-- Generator: Adobe Illustrator 19.0.0, SVG Export Plug-In . SVG Version: 6.00 Build 0)  -->
<svg xmlns="http://www.w3.org/2000/svg" xmlns:xlink="http://www.w3.org/1999/xlink" version="1.1" id="Layer_1" x="0px" y="0px" viewBox="0 0 479.294 479.294" style="enable-background:new 0 0 479.294 479.294;" xml:space="preserve">
<path style="fill:#98BED8;" d="M315.2,177.247l-30.4-13.2c-7.6-2.8-12.8-10.4-12.8-18.8v-76.4c0-18-6.4-35.2-18-48.8  c-7.6-8.8-20.8-8.8-28.4,0c-11.2,13.6-17.6,31.2-17.6,48.8v75.6c0,8.8-5.2,16.4-13.2,19.6l-29.2,11.2c-8,3.2-13.2,10.8-13.2,19.6v22  h56h15.2h34H272h56v-20.4C328,188.447,322.8,180.847,315.2,177.247z"/>
<path style="fill:#FFFFFF;" d="M408,413.647c-7.2,0-13.6,1.2-20,3.6c-0.4-22-18-39.6-40-39.6c-2.4,0-4.8,0.4-7.2,0.8  c7.2-12,11.2-26,11.2-40.8c0-44-36-80-80-80c-7.2,0-13.6,0.8-20.4,2.8c-4.8-2-10-2.8-15.6-2.8c-25.2,0-46,19.6-48,44.4  c-2.8-0.4-5.6-0.4-8-0.4c-35.2,0-64,26.8-67.6,60.8c-4-0.4-8-0.8-12.4-0.8c-48.8,0-88,39.2-88,88c0,5.6,0.4,10.8,1.6,16h454  C463.6,436.447,438.4,413.647,408,413.647z"/>
<g>
	<path style="fill:#454B54;" d="M13.6,477.647c-5.6,0-10.8-4-11.6-10c-1.6-6-2-12-2-18c0-56,46-101.2,102.4-100   c8.8-34.8,40.4-60,77.6-60c6.8,0,12,5.2,12,12s-5.2,12-12,12c-28.8,0-52.8,21.6-55.6,50c-0.4,3.2-2,6.4-4.4,8.4s-6,2.8-9.2,2.4   c-3.6-0.4-7.2-0.8-10.8-0.8c-42,0-76,34-76,76c0,4.4,0.4,9.2,1.2,14c1.2,6.4-3.2,12.8-9.6,14C14.8,477.647,14,477.647,13.6,477.647   z"/>
	<path style="fill:#454B54;" d="M467.2,477.647c-6,0-11.2-4.4-12-10.4c-3.2-23.6-23.6-41.6-47.6-41.6c-5.2,0-10.8,0.8-16,2.8   c-3.6,1.2-7.6,0.8-10.8-1.6s-5.2-6-5.2-9.6c0-15.2-12.8-27.6-28-27.6c-1.6,0-3.2,0-5.2,0.4c-4.8,0.8-9.2-1.2-12-4.8   s-2.8-8.8-0.4-12.8c6.8-10.8,10-22.8,10-34.8c0-28.4-17.2-53.2-43.2-63.6c-6-2.4-9.2-9.2-6.8-15.6c2.4-6,9.2-9.2,15.6-6.8   c35.2,14,58.4,47.6,58.4,86c0,10-1.6,20-4.8,29.2c18.4,4,33.2,18,38.4,35.6c3.6-0.4,6.8-0.8,10.4-0.8c36,0,66.4,26.8,71.2,62.4   c0.8,6.4-3.6,12.8-10.4,13.6C468.4,477.647,468,477.647,467.2,477.647z"/>
</g>
<polyline style="fill:#FFFFFF;" points="212,357.647 212,221.647 268,221.647 268,357.647 "/>
<g>
	<path style="fill:#454B54;" d="M268,389.647c-6.8,0-12-5.2-12-12v-156c0-6.8,5.2-12,12-12s12,5.2,12,12v156   C280,384.447,274.8,389.647,268,389.647z"/>
	<path style="fill:#454B54;" d="M212,349.647c-6.8,0-12-5.2-12-12v-116c0-6.8,5.2-12,12-12s12,5.2,12,12v116   C224,344.447,218.8,349.647,212,349.647z"/>
	<path style="fill:#454B54;" d="M212,429.647c-3.2,0-6.4-1.2-8.4-3.6c-2.4-2.4-3.6-5.2-3.6-8.4s1.2-6.4,3.6-8.4   c4.4-4.4,12.4-4.4,16.8,0c2.4,2.4,3.6,5.2,3.6,8.4s-1.2,6.4-3.6,8.4C218.4,428.447,215.2,429.647,212,429.647z"/>
	<path style="fill:#454B54;" d="M328,229.247H152c-6.8,0-12-5.2-12-12v-22c0-13.6,8.4-25.6,20.8-30.8l29.2-11.2   c3.6-1.2,5.6-4.8,5.6-8.4v-76c0-20.8,7.6-40.8,20.8-56.4c6-6.8,14.8-10.8,23.6-10.8c8.8,0,17.6,4,23.2,10.8   c13.6,15.6,20.8,36,20.8,56.4v76.4c0,3.6,2,6.8,5.6,8.4l30.4,13.2c12,5.2,20,17.2,20,30.4v20.4   C340,223.647,334.8,229.247,328,229.247z M164,205.247h152v-8.4c0-3.6-2-6.8-5.6-8.4l-30.4-13.2c-12-5.2-20-17.2-20-30.4v-76   c0-14.8-5.2-29.6-15.2-40.8c-1.6-2-3.6-2.4-4.8-2.4s-3.2,0.4-5.2,2.4c-9.6,11.6-15.2,26-15.2,40.8v75.6c0,13.6-8.4,25.6-20.8,30.8   l-29.2,11.2c-3.6,1.2-5.6,4.8-5.6,8.4V205.247z"/>
</g>

</svg>
