<svg height="504pt" viewBox="0 -42 504 504" width="504pt" xmlns="http://www.w3.org/2000/svg"><path d="m136 188h232v48h-232zm0 0" fill="#fff"/><path d="m108 12c-15.601562 0-28 12.398438-28 28v340c0 15.601562 12.398438 28 28 28s28-12.398438 28-28v-340c0-15.601562-12.398438-28-28-28zm0 0" fill="#b8e4ff"/><path d="m52 332c-15.601562 0-28-12.398438-28-28v-184c0-15.601562 12.398438-28 28-28s28 12.398438 28 28v184c0 15.601562-12.398438 28-28 28zm0 0" fill="#b8e4ff"/><path d="m52 92c-15.601562 0-28 12.398438-28 28v48h56v-48c0-15.601562-12.398438-28-28-28zm0 0" fill="#fff"/><path d="m80 40v48h56v-48c0-15.601562-12.398438-28-28-28s-28 12.398438-28 28zm0 0" fill="#fff"/><path d="m452 92c-15.601562 0-28 12.398438-28 28v-80c0-15.601562-12.398438-28-28-28s-28 12.398438-28 28v340c0 15.601562 12.398438 28 28 28s28-12.398438 28-28v-76c0 15.601562 12.398438 28 28 28s28-12.398438 28-28v-184c0-15.601562-12.398438-28-28-28zm0 0" fill="#b8e4ff"/><path d="m452 92c15.601562 0 28 12.398438 28 28v48h-56v-48c0-15.601562 12.398438-28 28-28zm0 0" fill="#fff"/><path d="m424 40v48h-56v-48c0-15.601562 12.398438-28 28-28s28 12.398438 28 28zm0 0" fill="#fff"/><path d="m492 180v-60c0-22-18-40-40-40-5.601562 0-11.199219 1.199219-16 3.199219v-43.199219c0-22-18-40-40-40s-40 18-40 40v136h-208v-136c0-22-18-40-40-40s-40 18-40 40v43.199219c-4.800781-2-10.398438-3.199219-16-3.199219-22 0-40 18-40 40v60c-6.800781 0-12 5.199219-12 12v40c0 6.800781 5.199219 12 12 12v60c0 22 18 40 40 40 5.601562 0 11.199219-1.199219 16-3.199219v39.199219c0 22 18 40 40 40s40-18 40-40v-132h208v132c0 22 18 40 40 40s40-18 40-40v-39.199219c4.800781 2 10.398438 3.199219 16 3.199219 22 0 40-18 40-40v-60c6.800781 0 12-5.199219 12-12v-40c0-6.800781-5.199219-12-12-12zm-368 8v108c0 8.800781-7.199219 16-16 16s-16-7.199219-16-16v-86.800781c0-6.800781-5.199219-12-12-12s-12 5.199219-12 12v6.800781c0 8.800781-7.199219 16-16 16s-16-7.199219-16-16v-96c0-8.800781 7.199219-16 16-16s16 7.199219 16 16v36c0 6.800781 5.199219 12 12 12s12-5.199219 12-12v-116c0-8.800781 7.199219-16 16-16s16 7.199219 16 16zm232 36h-180v-24h180zm24 12v-196c0-8.800781 7.199219-16 16-16s16 7.199219 16 16v116c0 6.800781 5.199219 12 12 12s12-5.199219 12-12v-36c0-8.800781 7.199219-16 16-16s16 7.199219 16 16v96c0 8.800781-7.199219 16-16 16s-16-7.199219-16-16v-4c0-6.800781-5.199219-12-12-12s-12 5.199219-12 12v84c0 8.800781-7.199219 16-16 16s-16-7.199219-16-16zm0 0" fill="#444b54"/></svg>