<svg xmlns="http://www.w3.org/2000/svg" xmlns:xlink="http://www.w3.org/1999/xlink" viewBox="0 0 32 32">
  <defs>
    <style>
      .a {
        fill: none;
      }

      .b {
        clip-path: url(#a);
      }

      .c {
        fill: #e7bce7;
      }

      .d {
        clip-path: url(#b);
      }

      .e {
        fill: #f7f7fb;
      }

      .f {
        opacity: 0.2;
        isolation: isolate;
      }

      .g {
        clip-path: url(#c);
      }

      .h {
        clip-path: url(#d);
      }

      .i {
        clip-path: url(#e);
      }

      .j {
        fill: #0c0f13;
      }

      .k {
        clip-path: url(#f);
      }

      .l {
        clip-path: url(#h);
      }

      .m {
        clip-path: url(#j);
      }

      .n {
        fill: #454b54;
      }

      .o {
        clip-path: url(#k);
      }

      .p {
        clip-path: url(#l);
      }
    </style>
    <clipPath id="a">
      <circle class="a" cx="14" cy="16" r="12"/>
    </clipPath>
    <clipPath id="b">
      <path class="a" d="M24.56,15.32a6.23381,6.23381,0,0,0-2.34667.45333,8.54844,8.54844,0,0,0-16.48,3.2H5.6a4.26667,4.26667,0,0,0,0,8.53334H24.53333A6.09335,6.09335,0,1,0,24.56,15.32Z"/>
    </clipPath>
    <clipPath id="c">
      <rect class="a" x="12" y="10" width="19" height="18"/>
    </clipPath>
    <clipPath id="d">
      <path class="a" d="M14.29333,10.44a8.27685,8.27685,0,0,0-1.84.21333c2.77334.58667,6.74667,3.89334,7.78667,6.48.72-.29333,1.44-1.76,1.84-1.68A8.58566,8.58566,0,0,0,14.29333,10.44Z"/>
    </clipPath>
    <clipPath id="e">
      <rect class="a" x="12" y="10" width="20" height="19"/>
    </clipPath>
    <clipPath id="f">
      <path class="a" d="M24.56,15.32a6.04,6.04,0,0,0-1.84.29333A6.11656,6.11656,0,0,1,20.88,27.56h3.68a6.12,6.12,0,0,0,0-12.24Z"/>
    </clipPath>
    <clipPath id="h">
      <path class="a" d="M22.21333,15.8a2.84381,2.84381,0,0,1,.50667-.18667,2.70792,2.70792,0,0,0-.66667-.16A1.37852,1.37852,0,0,1,22.21333,15.8Z"/>
    </clipPath>
    <clipPath id="j">
      <path class="a" d="M5.62667,19.8A3.46672,3.46672,0,1,0,5.6,26.73333H24.53333A5.30667,5.30667,0,1,0,22.50667,16.52a.81372.81372,0,0,1-.61334,0,.83284.83284,0,0,1-.42666-.42667A7.763,7.763,0,0,0,6.50667,19a.82727.82727,0,0,1-.24.58667.80983.80983,0,0,1-.56.21333ZM24.56,28.36H5.6a5.07407,5.07407,0,0,1-.64-10.10667,9.37342,9.37342,0,0,1,17.70667-3.44A6.4982,6.4982,0,0,1,24.56,14.54667a6.90667,6.90667,0,1,1,0,13.81333Z"/>
    </clipPath>
    <clipPath id="k">
      <path class="a" d="M1.33333,24.06667a.78572.78572,0,0,1-.8-.8A5.07232,5.07232,0,0,1,9.2,19.69333a.792.792,0,0,1-1.12,1.12A3.58067,3.58067,0,0,0,5.6,19.8a3.47684,3.47684,0,0,0-3.46667,3.46667A.78572.78572,0,0,1,1.33333,24.06667Z"/>
    </clipPath>
    <clipPath id="l">
      <path class="a" d="M30.66667,22.25333a.78572.78572,0,0,1-.8-.8A5.30342,5.30342,0,0,0,24.56,16.14667a5.375,5.375,0,0,0-3.76,1.54666.792.792,0,0,1-1.12-1.12,6.90137,6.90137,0,0,1,11.78667,4.88A.80228.80228,0,0,1,30.66667,22.25333Z"/>
    </clipPath>
  </defs>
  <title>Artboard 1</title>
  <g class="b">
    <rect class="c" x="-3" y="-1" width="34" height="34"/>
  </g>
  <g class="d">
    <rect class="e" x="-3.66667" y="5.41333" width="39.30667" height="27.09334"/>
  </g>
  <g class="f">
    <g class="g">
      <g class="h">
        <g class="i">
          <rect class="j" x="7.45333" y="5.44" width="19.62667" height="16.69333"/>
        </g>
      </g>
      <g class="k">
        <g class="i">
          <rect class="j" x="15.88" y="10.32" width="19.78667" height="22.24"/>
        </g>
      </g>
      <g class="l">
        <g class="i">
          <rect class="j" x="17.05333" y="10.45333" width="10.66667" height="10.34667"/>
        </g>
      </g>
    </g>
  </g>
  <g class="m">
    <rect class="n" x="-4.46667" y="4.66667" width="40.93334" height="28.69333"/>
  </g>
  <g class="o">
    <rect class="n" x="-4.46667" y="13.2" width="18.90667" height="15.86667"/>
  </g>
  <g class="p">
    <rect class="n" x="14.44" y="9.54667" width="22.02667" height="17.70666"/>
  </g>
</svg>
