<svg height="504pt" viewBox="0 0 504 504" width="504pt" xmlns="http://www.w3.org/2000/svg"><path d="m12 12h88v480h-88zm0 0" fill="#fff"/><path d="m412 12h-216c-22 0-40 18-40 40v360c0 22 18 40 40 40h256c22 0 40-18 40-40v-320c0-44-36-80-80-80zm0 0" fill="#adf9d2"/><path d="m492 492h-336v-376zm0 0" fill="#fff"/><path d="m492 92h-40c-22 0-40-18-40-40v-40c44 0 80 36 80 80zm0 0" fill="#fff"/><path d="m492 424c-6.800781 0-12-5.199219-12-12v-268c0-6.800781 5.199219-12 12-12s12 5.199219 12 12v268c0 6.398438-5.199219 12-12 12zm0 0" fill="#444b54"/><path d="m504 92c0-.398438 0-1.199219 0-1.601562-.398438-24-10-46.398438-26.800781-63.597657-17.597657-17.199219-40.398438-26.800781-65.199219-26.800781h-216c-28.800781 0-52 23.199219-52 52 0 6.800781 5.199219 12 12 12s12-5.199219 12-12c0-15.601562 12.398438-28 28-28h204v28c0 28.800781 23.199219 52 52 52h38.398438 1.601562c4.800781 0 9.199219-3.199219 11.199219-7.199219.402343-1.601562.800781-3.199219.800781-4.800781zm-80-40v-26.800781c13.601562 2.402343 26 8.800781 36 18.800781s16.398438 22.398438 18.800781 36h-26.800781c-15.601562 0-28-12.398438-28-28zm0 0" fill="#444b54"/><g fill="#d3d8dd"><path d="m36 104h-24c-6.800781 0-12-5.199219-12-12s5.199219-12 12-12h24c6.800781 0 12 5.199219 12 12s-5.199219 12-12 12zm0 0"/><path d="m36 184h-24c-6.800781 0-12-5.199219-12-12s5.199219-12 12-12h24c6.800781 0 12 5.199219 12 12s-5.199219 12-12 12zm0 0"/><path d="m36 264h-24c-6.800781 0-12-5.199219-12-12s5.199219-12 12-12h24c6.800781 0 12 5.199219 12 12s-5.199219 12-12 12zm0 0"/><path d="m36 344h-24c-6.800781 0-12-5.199219-12-12s5.199219-12 12-12h24c6.800781 0 12 5.199219 12 12s-5.199219 12-12 12zm0 0"/><path d="m36 424h-24c-6.800781 0-12-5.199219-12-12s5.199219-12 12-12h24c6.800781 0 12 5.199219 12 12s-5.199219 12-12 12zm0 0"/></g><path d="m492 504h-336c-6.800781 0-12-5.199219-12-12v-376c0-4.800781 3.199219-9.601562 7.601562-11.199219 4.796876-1.601562 10-.402343 13.199219 3.199219l336 376c3.199219 3.601562 4 8.398438 2 12.800781-1.601562 4.398438-6 7.199219-10.800781 7.199219zm-324-24h297.199219l-297.199219-332.398438zm0 0" fill="#444b54"/><path d="m313.199219 424h-77.199219c-6.800781 0-12-5.199219-12-12v-86.398438c0-4.800781 3.199219-9.601562 7.601562-11.203124 4.796876-1.597657 10-.398438 13.199219 3.203124l77.199219 86.398438c3.199219 3.601562 4 8.398438 2 12.800781-1.601562 4.398438-6 7.199219-10.800781 7.199219zm-65.199219-24h38.398438l-38.398438-42.800781zm0 0" fill="#444b54"/><path d="m100 504h-88c-6.800781 0-12-5.199219-12-12v-480c0-6.800781 5.199219-12 12-12h88c6.800781 0 12 5.199219 12 12v480c0 6.800781-5.199219 12-12 12zm-76-24h64v-456h-64zm0 0" fill="#444b54"/></svg>